<svg width="40" height="40" viewBox="0 0 40 40" fill="none" xmlns="http://www.w3.org/2000/svg">
  <!-- Open Book Icon -->
  <path d="M4 8C4 6.89543 4.89543 6 6 6H16C18.2091 6 20 7.79086 20 10V32C20 30.8954 19.1046 30 18 30H6C4.89543 30 4 30.8954 4 32V8Z" fill="#C77350"/>
  <path d="M36 8C36 6.89543 35.1046 6 34 6H24C21.7909 6 20 7.79086 20 10V32C20 30.8954 20.8954 30 22 30H34C35.1046 30 36 30.8954 36 32V8Z" fill="#D4845F"/>
  <path d="M20 10V32M20 10C20 7.79086 18.2091 6 16 6H6C4.89543 6 4 6.89543 4 8V32C4 30.8954 4.89543 30 6 30H18C19.1046 30 20 30.8954 20 32M20 10C20 7.79086 21.7909 6 24 6H34C35.1046 6 36 6.89543 36 8V32C36 30.8954 35.1046 30 34 30H22C20.8954 30 20 30.8954 20 32" stroke="#8B4513" stroke-width="2" stroke-linecap="round" stroke-linejoin="round"/>
  <!-- Bookmark accent -->
  <path d="M20 6L18 10L20 14L22 10L20 6Z" fill="#F4A261" opacity="0.8"/>
</svg>
